<svg xmlns="http://www.w3.org/2000/svg" xml:space="preserve" id="HorizontalScale" x="0" y="0" enable-background="new 0 0 24 24" version="1.1" viewBox="0 0 24 24">
  <path d="M21.7,19.7l-2,2C19.5,21.9,19.3,22,19,22s-0.5-0.1-0.7-0.3c-0.4-0.4-0.4-1,0-1.4l0.3-0.3H5.4l0.3,0.3c0.4,0.4,0.4,1,0,1.4
		C5.5,21.9,5.3,22,5,22s-0.5-0.1-0.7-0.3l-2-2c-0.4-0.4-0.4-1,0-1.4l2-2c0.4-0.4,1-0.4,1.4,0c0.4,0.4,0.4,1,0,1.4L5.4,18h13.2
		l-0.3-0.3c-0.4-0.4-0.4-1,0-1.4c0.4-0.4,1-0.4,1.4,0l2,2C22.1,18.7,22.1,19.3,21.7,19.7z" fill="#595bd4" class="color000000 svgShape"></path>
  <path d="M20,3c0,0.5-0.5,1-1,1h-6v12c0,0.5-0.5,1-1,1s-1-0.5-1-1V4H5C4.5,4,4,3.5,4,3s0.5-1,1-1h14C19.5,2,20,2.5,20,3z" fill="#595bd4" class="color000000 svgShape"></path>
</svg>
